<svg xmlns="http://www.w3.org/2000/svg" viewBox="0 0 133.73 216"><defs><style>.cls-1{fill:#c93;}</style></defs><title>ceylon-re</title><g id="Layer_2" data-name="Layer 2"><g id="Layer_1-2" data-name="Layer 1"><path class="cls-1" d="M73.75,161.4a2.34,2.34,0,0,0-1-.87,2.86,2.86,0,0,0-1.3-.28,2.9,2.9,0,0,0-1.31.28,2.32,2.32,0,0,0-1,.87,4.33,4.33,0,0,0-.58,1.53,11.14,11.14,0,0,0-.19,2.24v3a10.68,10.68,0,0,0,.19,2.19,4.18,4.18,0,0,0,.59,1.49,2.57,2.57,0,0,0,1,.85,3.05,3.05,0,0,0,1.32.27,3,3,0,0,0,1.29-.27,2.34,2.34,0,0,0,1-.85,4.18,4.18,0,0,0,.58-1.49,11.44,11.44,0,0,0,.19-2.19v-3a11.07,11.07,0,0,0-.2-2.24A4.33,4.33,0,0,0,73.75,161.4Z"/><path class="cls-1" d="M102.69,165.74a2.08,2.08,0,0,0,.79-1,3.63,3.63,0,0,0,.26-1.44,4.56,4.56,0,0,0-.23-1.53,1.92,1.92,0,0,0-.75-1,2.27,2.27,0,0,0-1.32-.34H99.19v5.63h2.18A2.28,2.28,0,0,0,102.69,165.74Z"/><path class="cls-1" d="M0,0V189.43H133.73V0ZM117,58.08a23.81,23.81,0,0,1,2.53,11.23l-.37-.44c-2.63-4.81-7.36-8-12.07-10.59l.14,0C103,55.68,98.66,53,95.7,49c-.77-1.44-2.2-2.24-3.35-3.32l1.11-.19c5,2.23,10.48,3,15.38,5.4C112.16,52.34,115.46,54.66,117,58.08Zm-1.51,33.11-1,1.91c.33-4.14-1.19-8-2.93-11.69-.54-.72-1-1.47-1.57-2.2-3.77-5-8.6-9.08-11.8-14.5A27.21,27.21,0,0,1,95,57.52c3.48,3.44,7.7,5.9,11.82,8.46,2.79,2,5.71,4.07,7.45,7.12a24.38,24.38,0,0,1,2.43,5.68,21.91,21.91,0,0,1-1.3,12.16ZM68.15,138.9C62,133.77,59.6,124.61,63,117.28c.26-.62.56-1.22.86-1.81A39.61,39.61,0,0,1,73,103.82C85,92.65,87.8,87.62,87.8,87.62a32.73,32.73,0,0,1-5.48,16.15c-2.61,4.55-6,8.55-8.83,13-.67,1-1.24,2.14-1.81,3.23a29.26,29.26,0,0,0-3,8C67.72,131.51,68.12,135.24,68.15,138.9ZM19.28,93.1l-1-1.91.1-.25a21.82,21.82,0,0,1-1.29-12.16,23.93,23.93,0,0,1,2.42-5.68c1.74-3,4.66-5.13,7.46-7.12,4.11-2.56,8.34-5,11.81-8.46a27.21,27.21,0,0,1-3.17,7.19c-3.19,5.42-8,9.53-11.8,14.5-.53.73-1,1.48-1.56,2.2C20.47,85.07,19,89,19.28,93.1ZM40.93,72.49s-2.45,2.2-2.34,14.16c.13,13.32,11.24,27.48,11.24,27.48,4.17,4.91,6.25,12.44,6.25,12.44-15.21-17.84-20-9.29-25.43-26.83C25.46,82.94,40.93,72.49,40.93,72.49Zm14.7,37.84c-1.76-2.79-3.72-5.46-5.25-8.4a26.11,26.11,0,0,1-3.3-7.87c-.5-2.23-1.31-4.47-1.08-6.79,0,0,5.8,13,16,17.08.52.36,1.06.7,1.61,1a56,56,0,0,0-5.45,9c-.35-.58-.68-1.16-1-1.75C56.65,111.81,56.13,111.08,55.63,110.33ZM59.3,88.72a17.76,17.76,0,0,1,5.9-2.23c.46,1.35.89,2.71,1.23,4.1l.82-.09a11.73,11.73,0,0,1,1.32-4,14.32,14.32,0,0,1,5.15,1.61c1.39.62,2.74,2,2.43,3.64-.54,1.14-1.78,1.65-2.81,2.23a56.87,56.87,0,0,1-5.75,2.72c-1.51.5-2.8-.71-4.1-1.28-1.83-1.08-4-1.53-5.67-2.86C57.73,91.12,57.91,89.51,59.3,88.72Zm24.25,25.41S94.67,100,94.79,86.65c.11-12-2.34-14.16-2.34-14.16s15.48,10.45,10.29,27.25c-5.42,17.54-10.22,9-25.44,26.83C77.3,126.57,79.38,119,83.55,114.13Zm13.53-82.7c2.19-.09,4.91-.21,6.22,1.91.07,3.08.06,6.52-2.12,9-.18-2.7.31-5.93-1.78-8-2.26-1.68-5.14-.36-7.54.28C93.21,33,94.93,31.47,97.08,31.43ZM89.17,54.77c.66,2.9.33,5.9.47,8.85-.06,1.3.31,2.76-.51,3.9-.35.34-.72.65-1.1,1-1.78-1.24-3.78-2.11-5.54-3.38l-.79.7a53.47,53.47,0,0,0,3.43,11.31A29.84,29.84,0,0,0,80,81.62c-1,1.24-1.32,2.89-1.78,4.4-2-.06-3.55-1.46-5.37-2.08-1.21-.5-2.79-1-3.15-2.39s-.45-3.14.74-4.17c2.3-2.08,5.3-3,7.94-4.58A11.83,11.83,0,0,0,78,69a19,19,0,0,1-.56-8.8c.31-2.26,3-2.49,4.55-3.54,1.45-1.45,3.33-2.51,4.41-4.28,0-.43,0-.85,0-1.27-1.15,0-2.31,0-3.47,0a30,30,0,0,0-8,2.63l-.88.32-.68,1c1.06,2.37.47,5,.7,7.51A38.55,38.55,0,0,0,75.75,70q-4.19.28-8.35.25T59.05,70a39.28,39.28,0,0,0,1.61-7.48c.24-2.51-.35-5.14.7-7.51l-.68-1-.88-.32a30,30,0,0,0-8-2.63c-1.15,0-2.31,0-3.47,0,0,.42,0,.84,0,1.27,1.09,1.77,3,2.83,4.41,4.28,1.59,1.05,4.24,1.28,4.55,3.54a18.85,18.85,0,0,1-.56,8.8,11.83,11.83,0,0,0-.4,3.84C59,74.34,62,75.3,64.31,77.38c1.19,1,1,2.78.75,4.17s-2,1.89-3.15,2.39c-1.82.62-3.38,2-5.37,2.08-.47-1.51-.75-3.16-1.79-4.4a29.84,29.84,0,0,0-5.09-4.5A54.08,54.08,0,0,0,53.1,65.81l-.79-.7c-1.77,1.27-3.77,2.14-5.55,3.38-.37-.32-.75-.63-1.1-1-.81-1.14-.45-2.6-.51-3.9.14-2.95-.19-5.95.47-8.85A14,14,0,0,1,46.29,52a31.71,31.71,0,0,1,5.36-9,18.9,18.9,0,0,1,11.67,2.72A4.34,4.34,0,0,1,65,48a29.73,29.73,0,0,1,1.49,5.57l.82,0h.25l.82,0A30.54,30.54,0,0,1,69.84,48a4.24,4.24,0,0,1,1.64-2.23A18.85,18.85,0,0,1,83.14,43a31.71,31.71,0,0,1,5.36,9A12.72,12.72,0,0,1,89.17,54.77ZM52.87,39.31V35.6h27.4v3.71ZM54.81,20a4.63,4.63,0,1,0,5.28-3.2l6.48-6.59,6.48,6.59A4.63,4.63,0,1,0,78.33,20l9.89-3.64-8,15.86H52.87l-8-15.86ZM30.69,33.11c1.19-2.12,3.93-1.69,6-1.68,2.5,0,4.18,2,5.9,3.54-1.58-.57-3.1-1.49-4.83-1.43-1.33,0-3.05,0-3.81,1.31a15.76,15.76,0,0,0-1.41,7c-.38-.36-.77-.73-1.12-1.11C30.78,38.31,30,35.65,30.69,33.11Zm-14,25c1.53-3.42,4.83-5.74,8.15-7.24,4.9-2.37,10.41-3.17,15.38-5.4l1.11.19C40.23,46.71,38.8,47.51,38,49c-3,4.06-7.34,6.73-11.52,9.37l.14,0c-4.71,2.55-9.44,5.78-12.07,10.59l-.37.44A23.93,23.93,0,0,1,16.74,58.08Zm.75,112.22a5,5,0,0,0,.47,1.52,2.22,2.22,0,0,0,.87.9,2.83,2.83,0,0,0,1.37.3,3.45,3.45,0,0,0,1.57-.3,1.84,1.84,0,0,0,.87-1,6.81,6.81,0,0,0,.35-2.06h3.25a7.77,7.77,0,0,1-.79,3.32,4.85,4.85,0,0,1-2,2.07,6.74,6.74,0,0,1-3.21.71,6.17,6.17,0,0,1-2.57-.51,5.15,5.15,0,0,1-1.92-1.47,6.46,6.46,0,0,1-1.2-2.37,11.65,11.65,0,0,1-.41-3.22v-3.09a11.33,11.33,0,0,1,.43-3.23,6.84,6.84,0,0,1,1.23-2.39A5.09,5.09,0,0,1,17.7,158a6.45,6.45,0,0,1,2.58-.5,6.46,6.46,0,0,1,3.19.72,4.83,4.83,0,0,1,2,2.1,8.7,8.7,0,0,1,.82,3.37H23a7.38,7.38,0,0,0-.31-2,1.88,1.88,0,0,0-.85-1.09,3.12,3.12,0,0,0-1.56-.33,2.86,2.86,0,0,0-1.32.28,2.13,2.13,0,0,0-.92.87,4.62,4.62,0,0,0-.52,1.5,11.7,11.7,0,0,0-.17,2.2v3.11A14.75,14.75,0,0,0,17.49,170.3Zm21.19,5.18h-10V157.74h10v2.73H31.91V165h5.73v2.65H31.91v5.09h6.77ZM47.75,169v6.48H44.46V169l-4.84-11.26h3.57l2.91,8.2,2.9-8.2h3.59Zm16.33,6.48h-9.7V157.74h3.26v15h6.44Zm13.69-7.3a11.2,11.2,0,0,1-.44,3.29,6.43,6.43,0,0,1-1.27,2.36,5.28,5.28,0,0,1-2,1.42,7.12,7.12,0,0,1-5.14,0,5.39,5.39,0,0,1-2-1.42,6.46,6.46,0,0,1-1.29-2.36,10.54,10.54,0,0,1-.46-3.29v-3a11.29,11.29,0,0,1,.45-3.36,6.56,6.56,0,0,1,1.29-2.4,5.41,5.41,0,0,1,2-1.46,7,7,0,0,1,5.13,0,5.46,5.46,0,0,1,2,1.46,6.4,6.4,0,0,1,1.28,2.4,11.29,11.29,0,0,1,.45,3.36Zm15,7.3H89.62l-5.93-11.69v11.69H80.57V157.74h3.14l6,11.79V157.74H92.8Zm14.77,0h-3.48l-2.8-6.67h-2.1v6.67H95.92V157.74h5.52a6.87,6.87,0,0,1,3,.6,4.27,4.27,0,0,1,1.9,1.81,6.11,6.11,0,0,1,.65,2.94,6.49,6.49,0,0,1-.4,2.4,4.51,4.51,0,0,1-1.12,1.7,4.42,4.42,0,0,1-1.12.76l3.21,7.36Zm12.06,0h-10V157.74h10v2.73h-6.72V165h5.73v2.65h-5.73v5.09h6.77Z"/><path d="M2.33,214.65a6,6,0,0,1-1.15-4v-6.08L0,204.34v-.83H4.42v.83L3,204.56v6.24a5.18,5.18,0,0,0,.81,3.25,2.79,2.79,0,0,0,2.31,1A2.58,2.58,0,0,0,8.39,214a5.3,5.3,0,0,0,.75-3.08v-6.34l-1.39-.22v-.83h3.86v.83l-1.21.2v6.28a5.39,5.39,0,0,1-1.23,3.86A4.29,4.29,0,0,1,5.91,216,4.52,4.52,0,0,1,2.33,214.65Z"/><path d="M13.6,204.54l-1.33-.2v-.83h3.08l5.52,8.08.92,1.76v-8.81l-1.44-.2v-.83h3.91v.83l-1.32.2v11.28H21.63L16,207.55l-1.28-2.18v9.47l1.58.17v.81h-4V215l1.33-.19Z"/><path d="M26.4,204.54l-1.29-.2v-.83h2.17q.51,0,1.47-.06c.64,0,1.12-.07,1.44-.07a6.13,6.13,0,0,1,4.58,1.55,6,6,0,0,1,1.5,4.34,7.58,7.58,0,0,1-.77,3.47,5.74,5.74,0,0,1-2.16,2.36,6,6,0,0,1-3.2.85c-.26,0-.72,0-1.36-.07s-1.16-.06-1.49-.06H25V215l1.38-.17ZM29.64,215h.5a3.88,3.88,0,0,0,3.68-2.46,7.41,7.41,0,0,0,.53-2.95,6.05,6.05,0,0,0-1.14-4,4.2,4.2,0,0,0-3.42-1.36c-.32,0-.7,0-1.14.07a3.24,3.24,0,0,1-.5,0v10.5A6.86,6.86,0,0,0,29.64,215Z"/><path d="M38.54,204.54l-1.36-.2v-.83h8.43l.23,2.57H44.9l-.48-1.61-4.11-.1V209l2.77,0,.23-1.37h.91v3.81h-.91L43.08,210,40.31,210v4.94l4.67-.17.88-2.08,1,.3-.47,2.88h-9.2V215l1.38-.17Z"/><path d="M47.53,215l1.37-.17v-10.3l-1.29-.22v-.81h2.17q.47,0,1.26-.06c.55,0,1-.07,1.29-.07a5.8,5.8,0,0,1,3.47.79,2.9,2.9,0,0,1,1,2.47,3.79,3.79,0,0,1-.66,2.16,3.19,3.19,0,0,1-1.79,1.32,2.81,2.81,0,0,1,1,1c.31.46.68,1.09,1.12,1.91.34.62.6,1.07.79,1.36s.35.45.52.48l.64.17v.81H56.16q-.27,0-.6-.57c-.22-.39-.51-1-.88-1.77s-.74-1.56-1-2.08a2.32,2.32,0,0,0-.87-1c-1.18,0-1.88,0-2.1,0v4.44l1.64.17v.81H47.53Zm6.79-6.18a3,3,0,0,0,.61-2.07,2.53,2.53,0,0,0-.62-1.85,2.94,2.94,0,0,0-2.14-.64,9.28,9.28,0,0,0-1.06.07l-.43,0v5.14h2A2.13,2.13,0,0,0,54.32,208.83Z"/><path d="M57.7,203.51h4.49v.83l-1.56.2,2.27,7.72.48,2.3.55-2.3,1.9-6.31-.45-1.41-1.17-.2v-.83h4.65v.83l-1.62.2,2.23,7.72.57,2.48.46-2.48,2.09-7.72-1.64-.2v-.83h3.94v.83l-1.09.2L70.5,215.9H68.88l-2.54-8.3-2.45,8.3H62.32l-3.53-11.34-1.09-.22Z"/><path d="M74.92,215l1.38-.17v-10.3L75,204.32v-.81h2.17c.3,0,.72,0,1.25-.06s1-.07,1.29-.07a5.8,5.8,0,0,1,3.47.79,2.9,2.9,0,0,1,1,2.47,3.86,3.86,0,0,1-.65,2.16,3.24,3.24,0,0,1-1.8,1.32,2.81,2.81,0,0,1,1,1c.31.46.68,1.09,1.12,1.91.34.62.61,1.07.79,1.36s.35.45.52.48l.65.17v.81H83.55c-.18,0-.37-.19-.6-.57s-.51-1-.87-1.77-.75-1.56-1-2.08a2.32,2.32,0,0,0-.87-1c-1.18,0-1.88,0-2.1,0v4.44l1.64.17v.81H74.92Zm6.79-6.18a3,3,0,0,0,.61-2.07,2.53,2.53,0,0,0-.62-1.85,2.94,2.94,0,0,0-2.14-.64,9.43,9.43,0,0,0-1.06.07l-.43,0v5.14h2A2.11,2.11,0,0,0,81.71,208.83Z"/><path d="M87.84,204.54l-1.54-.2v-.83h4.87v.83l-1.54.2v10.3l1.54.18v.8H86.32V215l1.52-.17Z"/><path d="M96.47,204.39l-2.85.1L93,208H92l.28-4.44h10.32l.19,4.44h-1l-.54-3.46-2.87-.1v10.45l2.35.17v.81H94.32V215l2.15-.17Z"/><path d="M105.15,204.54l-1.54-.2v-.83h4.86v.83l-1.53.2v10.3l1.53.18v.8h-4.85V215l1.53-.17Z"/><path d="M111.13,204.54l-1.33-.2v-.83h3.08l5.52,8.08.92,1.76v-8.81l-1.44-.2v-.83h3.91v.83l-1.32.2v11.28h-1.31l-5.63-8.27-1.28-2.18v9.47l1.57.17v.81h-4V215l1.33-.19Z"/><path d="M125.16,215.2a5.06,5.06,0,0,1-2-2.19,7.85,7.85,0,0,1,.13-6.67,5.37,5.37,0,0,1,2.22-2.21,6.86,6.86,0,0,1,3.25-.75,17.31,17.31,0,0,1,3.86.51l-.15,2.87h-1.18l-.39-2a2.59,2.59,0,0,0-.79-.35,5.42,5.42,0,0,0-1.48-.16,3.71,3.71,0,0,0-3.59,2.37,6.93,6.93,0,0,0-.52,2.84,9,9,0,0,0,.42,2.82,4.63,4.63,0,0,0,1.29,2.05,3.11,3.11,0,0,0,2.13.76,5.73,5.73,0,0,0,1.51-.19,2.77,2.77,0,0,0,1.09-.5v-3.69l-2.08-.17v-1h4.83v1l-1,.15v4.45a6.11,6.11,0,0,0-1.21.29c-.57.17-1.11.31-1.62.41a8.78,8.78,0,0,1-1.69.15A5.83,5.83,0,0,1,125.16,215.2Z"/></g></g></svg>