<svg xmlns="http://www.w3.org/2000/svg" viewBox="0 0 232.61 170.14"><defs><style>.cls-1,.cls-2{fill:#5baf30;}.cls-2{fill-rule:evenodd;}</style></defs><title>Asset 1</title><g id="Layer_2" data-name="Layer 2"><g id="Layer_1-2" data-name="Layer 1"><path class="cls-1" d="M2.85,165.53H4.14v1.18H0v-1.18H1.28v-9.47H0v-1.19H4.14v1.19H2.85Z"/><path class="cls-1" d="M17.74,165.58h1.15v1.13H15.18v-1.13h1.15v-3.39a2.67,2.67,0,0,0-.31-1.57,1.23,1.23,0,0,0-1-.37,2.44,2.44,0,0,0-1.17.31,5,5,0,0,0-1.2,1v4h1.16v1.13H10.07v-1.13h1.16v-5.27H10.07v-1.13h2.56v1.07a4.5,4.5,0,0,1,1.33-1,3.26,3.26,0,0,1,1.41-.31,2.67,2.67,0,0,1,1.16.23,2,2,0,0,1,.83.66,1.67,1.67,0,0,1,.29.58,3.75,3.75,0,0,1,.09.94v4.19Z"/><path class="cls-1" d="M30.89,156H29.63v-1.15h2.68v10.71h1.14v1.13H30.89v-.91a3.45,3.45,0,0,1-1.15.83,3.41,3.41,0,0,1-1.41.26,3.79,3.79,0,0,1-2.84-1.13,3.83,3.83,0,0,1-1.13-2.82,3.88,3.88,0,0,1,1.11-2.82A3.7,3.7,0,0,1,28.23,159a3.76,3.76,0,0,1,1.46.27,3.64,3.64,0,0,1,1.2.84Zm-5,6.92a2.78,2.78,0,0,0,.73,2,2.42,2.42,0,0,0,1.84.79,2.39,2.39,0,0,0,1.84-.79,3.06,3.06,0,0,0,0-4,2.57,2.57,0,0,0-3.69,0A2.77,2.77,0,0,0,25.85,162.94Z"/><path class="cls-1" d="M41.82,165.58h1.31v1.13h-4v-1.13h1.3v-5.27h-1.3v-1.13h2.7Zm-2-8.27v-1.52h2v1.52Z"/><path class="cls-1" d="M56.46,165.58h1.15v1.13H55v-1a2.89,2.89,0,0,1-1.13.89,4,4,0,0,1-4.28-.83,4.14,4.14,0,0,1,0-5.64A3.73,3.73,0,0,1,52.39,159a3.77,3.77,0,0,1,1.49.29,3.23,3.23,0,0,1,1.16.9v-1h2.57v1.13H56.46ZM50,162.94a2.78,2.78,0,0,0,.74,2,2.53,2.53,0,0,0,3.67,0,3,3,0,0,0,0-4,2.56,2.56,0,0,0-3.68,0A2.74,2.74,0,0,0,50,162.94Z"/><path class="cls-1" d="M71.18,165.58h1.14v1.13h-3.7v-1.13h1.14v-3.39a2.77,2.77,0,0,0-.3-1.57,1.27,1.27,0,0,0-1-.37,2.38,2.38,0,0,0-1.16.31,4.88,4.88,0,0,0-1.21,1v4h1.17v1.13H63.5v-1.13h1.17v-5.27H63.5v-1.13h2.56v1.07a4.63,4.63,0,0,1,1.33-1,3.3,3.3,0,0,1,1.42-.31,2.7,2.7,0,0,1,1.16.23,2.07,2.07,0,0,1,.83.66,1.86,1.86,0,0,1,.29.58,3.75,3.75,0,0,1,.09.94v4.19Z"/><path class="cls-1" d="M90.72,166.91,87.2,156.06H86.06v-1.19H90v1.19H88.8l2.43,7.74,2.53-7.74h-1.3v-1.19h3.93v1.19H95.24l-3.58,10.85Z"/><path class="cls-1" d="M109.13,164.47a4.14,4.14,0,0,1-1.54,1.79,4.19,4.19,0,0,1-2.29.65,3.89,3.89,0,0,1-2.89-1.11,4,4,0,0,1-1.09-2.94,3.75,3.75,0,0,1,1.09-2.82,4,4,0,0,1,2.9-1.06,3.81,3.81,0,0,1,2.9,1.15,4.23,4.23,0,0,1,1.1,3.05v.17h-6.52a2.38,2.38,0,0,0,.83,1.71,2.73,2.73,0,0,0,1.88.66,2.86,2.86,0,0,0,1.32-.32,2.75,2.75,0,0,0,1-.93Zm-6.34-2.22h5a2.41,2.41,0,0,0-.8-1.57,2.58,2.58,0,0,0-1.73-.55,2.56,2.56,0,0,0-1.72.55A2.41,2.41,0,0,0,102.79,162.25Z"/><path class="cls-1" d="M123,165.54v.28a12.05,12.05,0,0,1-.09,1.76,2.84,2.84,0,0,1-.3.92,2.79,2.79,0,0,1-1.32,1.21,4.82,4.82,0,0,1-2.11.43,4.36,4.36,0,0,1-2.38-.61,3.15,3.15,0,0,1-1.33-1.74H117a1.76,1.76,0,0,0,.8.88,3.06,3.06,0,0,0,1.4.29,2.56,2.56,0,0,0,1.85-.55,2.52,2.52,0,0,0,.57-1.86v-.75a3.45,3.45,0,0,1-1.15.83,3.41,3.41,0,0,1-1.41.26,3.85,3.85,0,0,1-4-3.95,3.88,3.88,0,0,1,1.11-2.82,3.7,3.7,0,0,1,2.76-1.14,3.76,3.76,0,0,1,1.46.27,3.64,3.64,0,0,1,1.2.84v-.91h2.56v1.13H123Zm-6.46-2.6a2.78,2.78,0,0,0,.73,2,2.54,2.54,0,0,0,3.68,0,3.06,3.06,0,0,0,0-4,2.57,2.57,0,0,0-3.69,0A2.77,2.77,0,0,0,116.53,162.94Z"/><path class="cls-1" d="M149.48,166.71h-2.13L146,165.23a5.88,5.88,0,0,1-1.75,1.32,4.81,4.81,0,0,1-2,.39,3.28,3.28,0,0,1-2.35-.85,2.82,2.82,0,0,1-.91-2.18,3.28,3.28,0,0,1,.54-1.84,7.65,7.65,0,0,1,1.86-1.81,8,8,0,0,1-1.13-1.62,3.19,3.19,0,0,1-.34-1.39,2.47,2.47,0,0,1,.77-1.88,2.83,2.83,0,0,1,2-.73,2.72,2.72,0,0,1,2,.74,2.57,2.57,0,0,1,.76,1.94,2.71,2.71,0,0,1-.52,1.57,6.5,6.5,0,0,1-1.62,1.52l2.71,3a7,7,0,0,0,.86-1.44,7.61,7.61,0,0,0,.53-1.59H146v-1.13h3.48v1.13h-1a10.47,10.47,0,0,1-.68,2,11.5,11.5,0,0,1-1.09,1.87l1.3,1.32h1.46Zm-4.33-2.35-2.9-3.11a5.09,5.09,0,0,0-1.31,1.23,2.12,2.12,0,0,0-.38,1.25,1.75,1.75,0,0,0,.56,1.38,2.17,2.17,0,0,0,1.52.51,3,3,0,0,0,1.34-.33A3.67,3.67,0,0,0,145.15,164.36Zm-2.64-4.84a4.75,4.75,0,0,0,1.15-1.13,2.18,2.18,0,0,0,.35-1.19,1.59,1.59,0,0,0-.36-1.07,1.13,1.13,0,0,0-.91-.42,1.38,1.38,0,0,0-1,.39,1.34,1.34,0,0,0-.39,1,2.57,2.57,0,0,0,.27,1.13A6,6,0,0,0,142.51,159.52Z"/><path class="cls-1" d="M167.91,166.91l-3.52-10.85h-1.14v-1.19h3.92v1.19H166l2.43,7.74,2.53-7.74h-1.3v-1.19h3.93v1.19h-1.15l-3.58,10.85Z"/><path class="cls-1" d="M186.32,164.47a4.14,4.14,0,0,1-1.54,1.79,4.19,4.19,0,0,1-2.29.65,3.87,3.87,0,0,1-2.89-1.11,4,4,0,0,1-1.09-2.94A3.75,3.75,0,0,1,179.6,160a4,4,0,0,1,2.9-1.06,3.81,3.81,0,0,1,2.9,1.15,4.23,4.23,0,0,1,1.1,3.05v.17H180a2.38,2.38,0,0,0,.83,1.71,2.73,2.73,0,0,0,1.88.66,2.86,2.86,0,0,0,1.32-.32,2.75,2.75,0,0,0,1-.93ZM180,162.25H185a2.42,2.42,0,0,0-.81-1.57,3,3,0,0,0-3.44,0A2.41,2.41,0,0,0,180,162.25Z"/><path class="cls-1" d="M200.18,165.54v.28a12.05,12.05,0,0,1-.09,1.76,2.84,2.84,0,0,1-.3.92,2.79,2.79,0,0,1-1.32,1.21,4.82,4.82,0,0,1-2.11.43,4.36,4.36,0,0,1-2.38-.61,3.15,3.15,0,0,1-1.33-1.74h1.49a1.76,1.76,0,0,0,.8.88,3.06,3.06,0,0,0,1.4.29,2.56,2.56,0,0,0,1.85-.55,2.52,2.52,0,0,0,.57-1.86v-.75a3.45,3.45,0,0,1-1.15.83,3.41,3.41,0,0,1-1.41.26,3.85,3.85,0,0,1-4-3.95,3.88,3.88,0,0,1,1.11-2.82A3.7,3.7,0,0,1,196.1,159a3.76,3.76,0,0,1,1.46.27,3.64,3.64,0,0,1,1.2.84v-.91h2.56v1.13h-1.14Zm-6.46-2.6a2.78,2.78,0,0,0,.73,2,2.54,2.54,0,0,0,3.68,0,3.06,3.06,0,0,0,0-4,2.57,2.57,0,0,0-3.69,0A2.77,2.77,0,0,0,193.72,162.94Z"/><path class="cls-1" d="M215,165.58h1.15v1.13h-2.57v-1a3,3,0,0,1-1.13.89,4,4,0,0,1-4.29-.83,4.12,4.12,0,0,1,0-5.64,3.69,3.69,0,0,1,2.75-1.14,3.74,3.74,0,0,1,1.49.29,3.35,3.35,0,0,1,1.17.9v-1h2.57v1.13H215Zm-6.46-2.64a2.74,2.74,0,0,0,.74,2,2.53,2.53,0,0,0,3.67,0,3.06,3.06,0,0,0,0-4,2.57,2.57,0,0,0-3.69,0A2.77,2.77,0,0,0,208.51,162.94Z"/><path class="cls-1" d="M229.68,165.58h1.15v1.13h-3.71v-1.13h1.15v-3.39a2.67,2.67,0,0,0-.31-1.57,1.24,1.24,0,0,0-1-.37,2.4,2.4,0,0,0-1.16.31,4.86,4.86,0,0,0-1.2,1v4h1.16v1.13H222v-1.13h1.16v-5.27H222v-1.13h2.56v1.07a4.5,4.5,0,0,1,1.33-1,3.23,3.23,0,0,1,1.41-.31,2.67,2.67,0,0,1,1.16.23,2,2,0,0,1,.83.66,1.67,1.67,0,0,1,.29.58,3.75,3.75,0,0,1,.09.94v4.19Z"/><path class="cls-1" d="M42,78.79a74.31,74.31,0,0,1-5.15-6.24,18.91,18.91,0,0,0,8.7-15.75c0-5.83-2.76-10.56-7.51-10.56-6.2,0-10,7.72-10,15a19.59,19.59,0,0,0,1.32,7.4,8.69,8.69,0,0,1-7.39-2.84c-2.1-2.36-3.16-6.45-3.16-11.65,0-12.92,6.59-28.51,15.56-28.51,6.19,0,7.91,9.61,7.91,14.49,0,2,1,3.62,2.63,3.62s3-1.57,3-3.62c0-12.44-4.62-21-13.58-21-12.66,0-21.49,18.43-21.49,35,0,13.07,6.19,20.79,15,20.79a7.72,7.72,0,0,0,1.84-.16,6.92,6.92,0,0,0,1.72-.31,24.52,24.52,0,0,0,2.35,4,24.2,24.2,0,0,1,8.2.38M33.55,61.36c0-4.41,2.11-8.5,4.21-8.5,1.72,0,2.25,2.2,2.25,3.94,0,3.62-2.11,8.34-5.54,10.39a18.57,18.57,0,0,1-.92-5.83"/><path class="cls-1" d="M40.85,90.58A16.24,16.24,0,0,1,41.19,94c0,9-1.91,30.59-15.26,38.79-8.6,5.29-14.14-.33-16.67-4.62a32.36,32.36,0,0,1-3.7-20.94C7.42,95,14.36,88.72,24.1,87.37a63.05,63.05,0,0,1,15.77.08l6.52.94a186.2,186.2,0,0,1,26.73,7c117.56,38.09,145.42-24.84,145.42-24.84C198.18,89.67,170.41,98,144.36,99.51c-31.82,1.85-73.1-13-73.1-13a186.52,186.52,0,0,0-28-5.36l-7.86-.54A61.2,61.2,0,0,0,17.5,82.35C5.63,85.58,1.12,97.86.17,108.92-.76,119.74,2,131.22,10.8,138.28c3.65,2.93,16,4.77,23.35-5.48,11.18-15.52,12.12-27.29,13-38.83A17.76,17.76,0,0,0,47,91.55Z"/><path class="cls-1" d="M50.38,123.57c22.48,3.26,43.48,12.15,65.74,16.5,18.83,3.68,38.44,5.21,57.46,2,19.41-3.32,38.88-11,52.08-26.16a42.25,42.25,0,0,0,7-10.12c-.31.68-3.24.22-3.56,1-4,8.89-12.28,16.39-20.15,21.72-25.31,17.17-58.06,16.48-87,11.12-23.06-4.27-44.74-13.56-68-16.93-1.12-.16-2.45,1.12-3.56,1Z"/><path class="cls-1" d="M69.43,70.34c-.27,1.89-1.45,3-2.9,3s-2.64-1.58-2.64-3.47c0-1.1.94-17.11,1.23-22.3.8-14.52-2.16-21-2.9-23.54a15.18,15.18,0,0,1-.79-4.41c0-1.89,1.32-1.57,2.77-1.57,2.5,0,6.89,13.94,5.31,21.66,3-14.55,8.77-26.33,15.36-26.33,1.72,0,3,.17,3,2.22,0,1.89,1.78,2.54.2,2.7C74.41,19.25,73.25,45,70.22,65.14Z"/><path class="cls-1" d="M123.15,31.44c0-3.15-1.84-5.36-5.27-5.36-6.6,0-16,10.08-16,26.94,0,5.35,1.45,15,11,15a11.45,11.45,0,0,0,9.23-5.2,2.43,2.43,0,0,1,2.11-1.26c1.58,0,2.63,1.58,2.63,3.62,0,3-6.33,9.3-14.37,9.3-10,0-16.48-8-16.48-21.42,0-19.85,11.6-33.71,22-33.71,7.91,0,11.08,5.83,11.08,12.13,0,12.44-11,18.58-18.73,18.58a3,3,0,0,1-2.9-3.3,3.37,3.37,0,0,1,2.9-3.47c6.2-.16,12.79-4.72,12.79-11.81"/><path class="cls-1" d="M162.44,31.44c0-3.15-1.84-5.36-5.27-5.36-6.59,0-15.95,10.08-15.95,26.94,0,5.35,1.45,15,10.94,15a11.42,11.42,0,0,0,9.23-5.2,2.43,2.43,0,0,1,2.11-1.26c1.58,0,2.63,1.58,2.63,3.62,0,3-6.33,9.3-14.37,9.3-10,0-16.48-8-16.48-21.42,0-19.85,11.6-33.71,22-33.71,7.91,0,11.07,5.83,11.07,12.13,0,12.44-10.94,18.58-18.72,18.58a3,3,0,0,1-2.9-3.3,3.37,3.37,0,0,1,2.9-3.47c6.2-.16,12.79-4.72,12.79-11.81"/><path class="cls-1" d="M210.43,41.2c0,11-2.11,23.47-3,28.83-.4,3.15-2.5,3.15-2.9,3.15-1.71,0-3-1.58-3-3.63a1.43,1.43,0,0,1,.13-.63,165.18,165.18,0,0,0,2.9-27.72c0-8.34-1.32-14.33-4.75-14.33-7.11,0-15.55,17.8-19.77,43.79a2.9,2.9,0,0,1-2.77,2.68c-1.72,0-2.77-1.58-2.77-3.63,0-1.89,2.37-13.39,2.9-15.91,1.45-7.08,2.64-14,2.77-19.37-.13-4.72-.66-7.4-2.37-9.45a5.37,5.37,0,0,1-.66-2.52,3.2,3.2,0,0,1,2.9-3.31c2.63,0,6.19,5.83,5.67,15.28,3.56-9.76,8.7-14.81,14.63-14.81,3,0,10.15,2.21,10.15,21.58"/><path class="cls-2" d="M67.66,19.41c-.49.18-1.21.47-1.89.69a23,23,0,0,1-1.49-3.38l.46,3.56a5.54,5.54,0,0,1-1.64.51c-1.09.24-3.22.86-3.83.45-1-.64-1-4.71-1-5.18L57,21.7c-2-.09-5.67-.58-5.78-2.21L51,19.15l-.24-1.58A11.87,11.87,0,0,1,53.17,10a11.2,11.2,0,0,1,7.48-4.27c6-.46,8.25,2.54,9.09,2.9a9.72,9.72,0,0,0,.91,1,11.54,11.54,0,0,1,.78,1,6,6,0,0,1,1.24,2.48l.26.89.07.55c.88,2.26-3.46,4.14-5.34,4.89"/><path class="cls-2" d="M90.83,22.14c-.6-.32-1.51-.75-2.32-1.21-.22-.13,1.93-4.37,1.93-4.37l-3,3.55A7.31,7.31,0,0,1,85.53,19c-1.18-.84-3.82-2.31-3.78-3.27A7.76,7.76,0,0,1,82.9,11.9l-3.62,2c-1.68-2-4.39-5.91-2.94-7.44l.21-.42,1.3-1.62C80.21,1.74,84.53.27,87.19,0a14.47,14.47,0,0,1,10.6,3.42c5.66,5.29,4.79,10.09,5.18,11.21a11.16,11.16,0,0,0-.18,1.76,15.89,15.89,0,0,1-.27,1.61,7.67,7.67,0,0,1-1.27,3.34l-.62,1-.47.54c-1.39,2.82-7,.33-9.33-.81"/><path class="cls-2" d="M71.26,73.29H74s2.38-11.18,5.68-11.38c0,0-5.82.32-8.41,11.38"/><path class="cls-2" d="M57.82,73.29H56.46s-1.19-7.87-2.85-8c0,0,2.91.64,4.21,8"/><path class="cls-2" d="M61.09,73.29H58.67s2.84-9.88-5-11.38c0,0,7.46-.91,7.46,11.38"/><path class="cls-1" d="M52.7,111.94l3.07-13.42,2,.47,3.63,11.14-1.07-.25,8-8.47,2,.47-3,13.42L65,114.76l2.2-9.72.5.11L61,112.22,59.84,112l-3.11-9.32.57.13-2.22,9.72Z"/><path class="cls-1" d="M74.64,117.76a5.25,5.25,0,0,1-2.1-1.19,3.61,3.61,0,0,1-1.06-1.94,5.45,5.45,0,0,1,.24-2.65l1.81-5.73,2.34.74-1.7,5.41a3,3,0,0,0,0,2.2,2.36,2.36,0,0,0,1.53,1.22,3.05,3.05,0,0,0,1.54.11,2.39,2.39,0,0,0,1.27-.71,3.78,3.78,0,0,0,.88-1.56L81,108.6l2.34.74-3.16,10-2.23-.7.85-2.7.13,1a3.62,3.62,0,0,1-2,1A4.64,4.64,0,0,1,74.64,117.76Z"/><path class="cls-1" d="M86.46,121.5a9.05,9.05,0,0,1-2.32-1,6.46,6.46,0,0,1-1.6-1.35L84,117.58a6.8,6.8,0,0,0,1.4,1.2,7.34,7.34,0,0,0,1.8.84,3.46,3.46,0,0,0,1.71.18,1,1,0,0,0,.74-.66.72.72,0,0,0-.16-.73,2.67,2.67,0,0,0-.78-.6c-.34-.18-.73-.37-1.16-.57a13.68,13.68,0,0,1-1.26-.65,5.33,5.33,0,0,1-1.08-.83,2.68,2.68,0,0,1-.63-1.11,2.59,2.59,0,0,1,.08-1.49,2.77,2.77,0,0,1,1-1.51,3.62,3.62,0,0,1,1.86-.63,6.7,6.7,0,0,1,2.46.31,9.81,9.81,0,0,1,2,.84,5.76,5.76,0,0,1,1.52,1.15l-1.44,1.52a5,5,0,0,0-1.26-1,7,7,0,0,0-1.39-.59,3.2,3.2,0,0,0-1.69-.16,1,1,0,0,0-.76.66.78.78,0,0,0,.14.78,2.78,2.78,0,0,0,.77.62,11.38,11.38,0,0,0,1.16.58,12.36,12.36,0,0,1,1.25.65,6.39,6.39,0,0,1,1.08.82,2.49,2.49,0,0,1,.65,1.09,2.91,2.91,0,0,1-1.12,3,3.72,3.72,0,0,1-1.89.62A7.3,7.3,0,0,1,86.46,121.5Z"/><path class="cls-1" d="M101.84,114.57a5,5,0,0,1,2.07,1,3.57,3.57,0,0,1,1.14,1.84,5.17,5.17,0,0,1-.08,2.66l-1.48,5.84-2.38-.6,1.4-5.53a3,3,0,0,0-.13-2.19,2.43,2.43,0,0,0-1.62-1.11,3.11,3.11,0,0,0-1.57,0,2.45,2.45,0,0,0-1.26.77,3.72,3.72,0,0,0-.78,1.62L95.85,124l-2.39-.61L97,109.26l2.38.6-1.69,6.71-.31-1a3.68,3.68,0,0,1,1.93-1.1A5.16,5.16,0,0,1,101.84,114.57Z"/><path class="cls-1" d="M106.92,126.67,109,116.38l2.3.48-.59,2.83-.1-.89a3.37,3.37,0,0,1,1.78-1.28,5.34,5.34,0,0,1,2.59,0l-.47,2.3a1.24,1.24,0,0,0-.28-.11l-.27-.07a3.06,3.06,0,0,0-2.34.35,3.3,3.3,0,0,0-1.3,2.22l-1,5Z"/><path class="cls-1" d="M119.88,129.23a5.8,5.8,0,0,1-2.73-1.14,5.5,5.5,0,0,1-.8-7.69,5.09,5.09,0,0,1,2.25-1.56,5.8,5.8,0,0,1,3-.24,6.1,6.1,0,0,1,2.76,1.13,5.06,5.06,0,0,1,1.66,2.18,5.36,5.36,0,0,1,.28,2.87,5.3,5.3,0,0,1-1.14,2.62,5.13,5.13,0,0,1-2.26,1.59A5.88,5.88,0,0,1,119.88,129.23Zm.32-2.08a3.28,3.28,0,0,0,1.66-.14,2.74,2.74,0,0,0,1.27-1,3.64,3.64,0,0,0,.67-1.67,3.56,3.56,0,0,0-.12-1.8,2.76,2.76,0,0,0-.93-1.29,3.41,3.41,0,0,0-3.15-.5,2.9,2.9,0,0,0-1.28,1,3.66,3.66,0,0,0-.68,1.67,3.53,3.53,0,0,0,.14,1.79,2.79,2.79,0,0,0,.92,1.3A3.08,3.08,0,0,0,120.2,127.15Z"/><path class="cls-1" d="M133,130.86a5.88,5.88,0,0,1-2.8-1A5.22,5.22,0,0,1,128,125a5.39,5.39,0,0,1,1-2.71,5.26,5.26,0,0,1,2.15-1.72,6,6,0,0,1,2.92-.43,6.06,6.06,0,0,1,2.83.94,5.13,5.13,0,0,1,1.81,2.06,5.74,5.74,0,0,1-.49,5.54,5.1,5.1,0,0,1-2.15,1.74A6.07,6.07,0,0,1,133,130.86Zm.19-2.1a3.29,3.29,0,0,0,1.64-.25,2.82,2.82,0,0,0,1.21-1,3.64,3.64,0,0,0,.55-1.71,3.7,3.7,0,0,0-.24-1.79,2.81,2.81,0,0,0-1-1.22,3.45,3.45,0,0,0-3.18-.28,2.86,2.86,0,0,0-1.21,1,3.51,3.51,0,0,0-.57,1.71,3.55,3.55,0,0,0,.26,1.78,2.76,2.76,0,0,0,1,1.24A3.15,3.15,0,0,0,133.23,128.76Z"/><path class="cls-1" d="M155,120.63a5,5,0,0,1,2.25.44,3.49,3.49,0,0,1,1.55,1.47,5.41,5.41,0,0,1,.61,2.59l.13,6-2.46,0-.12-5.7a3,3,0,0,0-.66-2.07,2.18,2.18,0,0,0-1.76-.65,2.77,2.77,0,0,0-1.42.39,2.32,2.32,0,0,0-.94,1.06,3.84,3.84,0,0,0-.3,1.76l.11,5.32-2.45.06-.13-5.7a3,3,0,0,0-.66-2.07A2.18,2.18,0,0,0,147,123a2.86,2.86,0,0,0-1.42.38,2.43,2.43,0,0,0-.94,1.06,3.89,3.89,0,0,0-.3,1.76l.11,5.33-2.45.05L141.75,121l2.34-.06.07,2.8-.44-.82a3.63,3.63,0,0,1,1.51-1.59,4.93,4.93,0,0,1,2.3-.58,4.51,4.51,0,0,1,2.58.67,3.51,3.51,0,0,1,1.5,2.17l-1-.31a4,4,0,0,1,1.65-1.93A5.14,5.14,0,0,1,155,120.63Z"/><path class="cls-1" d="M176.39,128.36a8.12,8.12,0,0,1-3,.17,7.33,7.33,0,0,1-2.63-.9,6.69,6.69,0,0,1-2-1.84,7.57,7.57,0,0,1-1.29-5.52,6.56,6.56,0,0,1,1-2.55,7.1,7.1,0,0,1,2-2,8.16,8.16,0,0,1,2.77-1.19,8.36,8.36,0,0,1,3.2-.16,6.21,6.21,0,0,1,2.69,1.09l-1.21,1.9a5.25,5.25,0,0,0-2-.76,5.3,5.3,0,0,0-2.09.09,5.48,5.48,0,0,0-1.88.8,4.81,4.81,0,0,0-1.32,1.34,4.53,4.53,0,0,0-.65,1.73,4.78,4.78,0,0,0,.09,2,4.85,4.85,0,0,0,.79,1.79,4.58,4.58,0,0,0,1.36,1.27,4.48,4.48,0,0,0,1.76.63,5.64,5.64,0,0,0,2-.11,6,6,0,0,0,1.85-.77,5.49,5.49,0,0,0,1.53-1.48l1.85,1.53a7.57,7.57,0,0,1-2.15,1.84A9.51,9.51,0,0,1,176.39,128.36Zm2.42-2.71-1.18-5,2.36-.55,1.25,5.34Z"/><path class="cls-1" d="M185.52,125.49l-5-13.72,2.31-.84,5,13.72Z"/><path class="cls-1" d="M196.26,121.07a6.49,6.49,0,0,1-3,.75,5.11,5.11,0,0,1-2.67-.81,5.33,5.33,0,0,1-1.89-2.16,5.39,5.39,0,0,1-.62-2.8,4.94,4.94,0,0,1,.87-2.56,5.71,5.71,0,0,1,2.2-1.87,5.47,5.47,0,0,1,2.74-.63,4.83,4.83,0,0,1,2.53.84,5.87,5.87,0,0,1,1.91,2.26c0,.1.09.2.15.32l.14.35-7.83,3.92-.73-1.45,6.66-3.35-.63.89a3.08,3.08,0,0,0-1-1.25,2.86,2.86,0,0,0-1.45-.49,3,3,0,0,0-1.57.35,3.09,3.09,0,0,0-1.24,1.06,2.76,2.76,0,0,0-.46,1.45,3.37,3.37,0,0,0,.39,1.64l.18.35a3.14,3.14,0,0,0,1.13,1.3,2.88,2.88,0,0,0,1.6.46,3.94,3.94,0,0,0,1.79-.46,4.19,4.19,0,0,0,1.3-1,3.38,3.38,0,0,0,.74-1.34l1.86.76a4.69,4.69,0,0,1-1,1.94A6.33,6.33,0,0,1,196.26,121.07Z"/><path class="cls-1" d="M204.08,116.56,195.18,105l1.95-1.5,4,5.18,1.55,2.33,1.77,2.16,1.51,2Zm4.7-3.44a4.65,4.65,0,0,1-2.25,1,4,4,0,0,1-2.38-.4,6.7,6.7,0,0,1-2.32-2,6.61,6.61,0,0,1-1.36-2.78,4.15,4.15,0,0,1,.25-2.41,4.75,4.75,0,0,1,1.5-1.88,5.62,5.62,0,0,1,2.58-1.15,4.94,4.94,0,0,1,2.63.33,6.06,6.06,0,0,1,3.46,4.49,5.05,5.05,0,0,1-.35,2.64A5.42,5.42,0,0,1,208.78,113.12Zm-1.5-1.5a3.1,3.1,0,0,0,1-1.28,2.89,2.89,0,0,0,.19-1.58,3.71,3.71,0,0,0-.74-1.64,3.61,3.61,0,0,0-1.4-1.14,3,3,0,0,0-1.57-.22,3.24,3.24,0,0,0-1.5.66,3.19,3.19,0,0,0-1,1.28,2.83,2.83,0,0,0-.2,1.58,3.94,3.94,0,0,0,2.14,2.78,2.83,2.83,0,0,0,1.59.22A3.24,3.24,0,0,0,207.28,111.62Z"/><path class="cls-1" d="M219.2,102.94a6.45,6.45,0,0,1-2.48,1.92,5.11,5.11,0,0,1-2.77.33,5.3,5.3,0,0,1-2.6-1.21,5.52,5.52,0,0,1-1.7-2.31,5,5,0,0,1-.23-2.69,5.51,5.51,0,0,1,1.25-2.6,5.43,5.43,0,0,1,2.26-1.68,4.79,4.79,0,0,1,2.65-.26,5.85,5.85,0,0,1,2.66,1.3l.26.24a2.23,2.23,0,0,1,.27.26L213.2,103l-1.26-1,4.75-5.74-.22,1.07a3,3,0,0,0-1.47-.73,2.78,2.78,0,0,0-1.51.14,3,3,0,0,0-1.3.95,3.14,3.14,0,0,0-.71,1.47,2.83,2.83,0,0,0,.17,1.52,3.27,3.27,0,0,0,1,1.34l.3.25a3.27,3.27,0,0,0,1.57.73,2.85,2.85,0,0,0,1.64-.23,4,4,0,0,0,1.45-1.14,4.17,4.17,0,0,0,.8-1.4,3.41,3.41,0,0,0,.14-1.53l2,0a4.65,4.65,0,0,1-.16,2.18A6.34,6.34,0,0,1,219.2,102.94Z"/></g></g></svg>