<svg xmlns="http://www.w3.org/2000/svg" viewBox="0 0 235 130.21"><defs><style>.cls-1{fill:#fef200;}.cls-2{fill:#ec1f26;}.cls-3{fill:#fff;}.cls-4{fill:#f0cf02;}</style></defs><title>mg</title><g id="Layer_2" data-name="Layer 2"><g id="Layer_1-2" data-name="Layer 1"><path class="cls-1" d="M110.23,120.51c.8.24,2.31.25,2.1,1.45,0,1.15-1.28,1.23-2.1,1.45C110.21,122.44,110.21,121.47,110.23,120.51Z"/><path class="cls-1" d="M58.41,120.58c.79.21,2.12-.1,2.26,1,0,1.17-1.44,1-2.24,1.22C58.42,122.07,58.41,121.32,58.41,120.58Z"/><path class="cls-1" d="M58.4,125.05c.92.07,2.71-.06,2.46,1.37-.09,1.23-1.56.9-2.4,1.12Q58.42,126.29,58.4,125.05Z"/><path class="cls-1" d="M125.32,125.18a24.93,24.93,0,0,1,2.15,2.09c-.72.07-1.63.56-2.22-.07S125.21,125.82,125.32,125.18Z"/><path class="cls-2" d="M79.71,16.78C88.79,5.66,103.31-.26,117.52,0,131.63-.2,146,5.67,155.05,16.69c11.46.06,22.93-.08,34.39.06,8,0,16.45,2.67,21.79,8.89,1.11,1.17,1.7,2.71,2.72,3.94,5.05.49,10.22,2.1,13.88,5.78,5.88,5.86,8.19,14.81,6.76,22.89a21,21,0,0,1-8.09,14.08,25.29,25.29,0,0,1-12.64,4.37c-2.92,4.2-7.23,7.19-11.78,9.39-5.81,2.64-12.32,2.74-18.58,2.7-8.78,0-17.55,0-26.32,0-1,0-2.18-.23-2.83.71a50.62,50.62,0,0,1-74.44-.37c-12,0-24.08.15-36.13,0A27.72,27.72,0,0,1,22.45,78.42c-.67-.82-1.17-2-2.4-2C14.26,75.52,8.5,72.92,4.76,68.3S-.3,57.66.05,51.89C.7,45.26,3.34,38.48,8.63,34.2c3.58-3,8.23-4.22,12.78-4.61A26.8,26.8,0,0,1,43.41,17Q61.56,16.91,79.71,16.78ZM109,2.49C98.07,4.18,87.51,9.75,80.73,18.62q-18.48.18-36.94.24A25.22,25.22,0,0,0,22.48,31.44,21.59,21.59,0,0,0,10.87,35c-5.24,3.56-8,9.8-8.82,15.9s.83,12.93,5.28,17.47c3.92,4,9.46,6,14.93,6.5A26,26,0,0,0,43.78,87.24c12.31.2,24.63,0,37,0A50.16,50.16,0,0,0,101.36,101,48.32,48.32,0,0,0,139,98.6,54.47,54.47,0,0,0,154.2,87c12.23-.27,24.47.16,36.71-.22,8.56-.38,17.12-4.67,21.87-11.92,5.05-.17,10.23-1.75,14-5.21,4.81-4.33,6.49-11.1,6.35-17.36-.42-5.79-2.55-11.7-6.86-15.72a19.48,19.48,0,0,0-12.39-5c-1.86.28-2-2-2.9-3.06-4.85-7.16-14-10.08-22.31-9.86q-17.25-.18-34.5,0a43.15,43.15,0,0,0-19.76-14A53.06,53.06,0,0,0,109,2.49Z"/><path class="cls-2" d="M82,21.35c7.67-10.6,20.74-16.5,33.65-16.81,14-.63,28.69,5.17,37.05,16.7,12.37,0,24.73,0,37.1,0,6.19.15,12.69,2,17.16,6.45,1.81,1.8,2.87,4.15,4,6.4,3.82,0,7.78.54,11.09,2.57,5.26,3.13,8,9.29,8.39,15.22.2,5.18-.91,10.74-4.45,14.71s-9.41,5.77-14.78,5.55c-2.27,4.67-6.73,7.73-11.29,9.92-5.4,2.32-11.41,2.19-17.18,2.18-10,0-20-.11-30,.1A45.9,45.9,0,0,1,82,84.52c-12,.17-24,.07-36,.1a27.48,27.48,0,0,1-9.48-1.45,22.52,22.52,0,0,1-12.42-10.5c-.29-.74-1.19-.49-1.81-.59C16.08,71.8,9.65,68.7,6.71,63a21.76,21.76,0,0,1,3-23.64c3.56-4,9.08-5.33,14.25-5.33a29.28,29.28,0,0,1,4.79-6.38,23,23,0,0,1,15-6.14C56.51,21.5,69.26,21.29,82,21.35Zm24-10.63a5.45,5.45,0,0,0-2.84,4.46c-.05,2.82-.05,5.64,0,8.46.77,0,1.54,0,2.32,0,.1-2.68,0-5.37,0-8.06A3.22,3.22,0,0,1,109,12.33a3.17,3.17,0,0,1,2.92,2.86c.2,2.71-.11,5.43.12,8.14.47.73,1.59.26,2.33.26,0-2.67,0-5.34,0-8a3.21,3.21,0,0,1,3.84-3.2,3.7,3.7,0,0,1,2.52,2.42c.55-.67,1.13-1.32,1.73-2a7.16,7.16,0,0,0-1.82-1.9A14.39,14.39,0,0,0,106,10.72Zm14.65,7.1a5.55,5.55,0,0,0,3.91,5.55,13.86,13.86,0,0,0,3.81.28c-.31-.74-.49-1.73-1.34-2-1.13-.4-2.56-.42-3.28-1.53a3.3,3.3,0,0,1,1.37-5,3.2,3.2,0,0,1,4.31,2.77c0,2.22.1,4.46,0,6.68-.27,1.95-2.39,2.79-4.15,2.62-1.34-.17-2.1,1-2.41,2.16,1.32,0,2.64.09,4,0a5.37,5.37,0,0,0,5.06-5.17c0-2.11,0-4.22,0-6.34a5.52,5.52,0,0,0-5.83-5.25A5.61,5.61,0,0,0,120.67,17.82Zm5.87-.6c-.94.94.56,2.45,1.48,1.45S127.47,16.3,126.54,17.22ZM108.35,40.49l1.47,0c0-3.05,0-6.1,0-9.15l-1.42-.09C108.28,34.34,108.38,37.42,108.35,40.49Zm-18.91-8.7q0,4.35,0,8.7l1.48,0c0-2.16,0-4.33,0-6.5,1,2,2,3.93,3,5.89l.85-.36c1.11-1.75,1.89-3.7,2.93-5.5,0,2.17,0,4.34,0,6.51l1.48-.12q0-4.29,0-8.58l-2.35-.05c-.81,1.77-1.63,3.53-2.54,5.25-.9-1.65-1.56-3.43-2.51-5C91.11,31.59,90.21,31.88,89.44,31.79Zm10.94,2.05c.82,2.33,2,4.55,2.65,6.92-.11,1.17-1.36.66-2.15.69l-.39,1.2c1.14.57,2.83.77,3.49-.59,1.28-2.67,2.28-5.48,3.42-8.22h-1.6c-.62,1.51-1.22,3-1.86,4.55a47.45,47.45,0,0,1-2-4.57Zm11.21.89c.18.21.53.65.7.87,1.24-.64,3.14-1,3.56.77a11.84,11.84,0,0,0-3.75.46c-1.5.79-1,3.32.61,3.66,1,.4,2-.12,2.89-.44a4.23,4.23,0,0,0,1.53.58c-.07-1.92.33-4-.33-5.81C115.55,33.17,113.08,33.69,111.59,34.73Zm7.35-1c0,3.07,0,6.14,0,9.21h1.46c0-1,0-2.06,0-3.09.94.47,2,1.07,3.06.66,2.6-.69,3.1-4.72.92-6.16a3.31,3.31,0,0,0-3.67,0A3,3,0,0,0,118.94,33.72Zm10.2.21a3.44,3.44,0,0,0-2.07,4.76,3.61,3.61,0,0,0,5.63,1,3.46,3.46,0,0,0,.1-4.88A3.63,3.63,0,0,0,129.14,33.93Zm7.56.8,0-.9-1.44,0c0,2.2,0,4.41,0,6.61l1.47.08c.06-2-.6-5.1,2.13-5.46,0-.5,0-1,0-1.5A17.69,17.69,0,0,0,136.7,34.73Zm4.17-.23a3.53,3.53,0,0,0,.53,5.73,4.47,4.47,0,0,0,4.47-.56l-.64-1c-1.42.9-3.44,1-4.26-.77,1.77-.09,3.55-.05,5.32-.06-.07-1,.06-2.12-.64-2.93A3.57,3.57,0,0,0,140.87,34.5Zm13,6.85c0,7.69,0,15.38,0,23.07,2.14,0,4.29,0,6.43,0,.13-3.51-.06-7,.09-10.53,1-1.42,4.32-2,4.62.23.15,3.42,0,6.86.06,10.29,2.18,0,4.37,0,6.57,0,0-3.55,0-7.12,0-10.67,0-2-.72-4.2-2.6-5.14a10.26,10.26,0,0,0-8.69.38c0-2.55,0-5.09,0-7.64ZM21.14,42.69a9.7,9.7,0,0,0-6.69,6.25A14.9,14.9,0,0,0,14.9,59.3a9.92,9.92,0,0,0,7.65,5.24,19.15,19.15,0,0,0,11.83-1.69c.06-3.74,0-7.48,0-11.22H24.59c0,1.35,0,2.71,0,4.07h4.36c0,1,0,2.1,0,3.16-2.2.41-4.74.76-6.68-.61s-2-4.3-1.65-6.51a4.65,4.65,0,0,1,3.54-3.85,17.53,17.53,0,0,1,9,.65V42.94A22.63,22.63,0,0,0,21.14,42.69ZM198.67,42c-.75,2.64-1.45,5.3-2.15,8,1.63,0,3.28,0,4.92,0,.91-2.64,1.78-5.3,2.7-7.94C202.32,42,200.49,42,198.67,42Zm-58,2.87c0,1.1,0,2.21,0,3.31l-2,0c0,1.59,0,3.19,0,4.78l2,0c.21,3.3-.78,7.09,1.33,9.94,2.36,2.51,6.29,2,9.3,1.13,0-1.46,0-2.92,0-4.38-1.28.12-3.13.8-3.93-.58a52.06,52.06,0,0,1-.15-6.12c1.16,0,2.32,0,3.48-.06.06-1.59.14-3.18.23-4.77l-3.71,0c0-1.62,0-3.25,0-4.87C145.06,43.8,142.88,44.34,140.7,44.86Zm-101.84,4v4a16.48,16.48,0,0,1,7.82-.57c.88.16,1.12,1.07,1.4,1.78-2.88.21-6-.47-8.68.86-3.35,1.63-3.51,7.22-.24,9a9.63,9.63,0,0,0,9-.61l.29,1h5.69c0-3.06,0-6.12,0-9.18A7.69,7.69,0,0,0,53,50.48,7.46,7.46,0,0,0,48.23,48,21,21,0,0,0,38.86,48.9ZM64,49.24c-.05-.26-.14-.77-.19-1H57.76c0,5.4,0,10.81,0,16.21,2.17,0,4.35,0,6.53,0,.08-3.19,0-6.38,0-9.57-.39-2.55,4.89-3.21,4.71-.37.07,3.31,0,6.62,0,9.93,2.18,0,4.37,0,6.56,0,0-3.68.09-7.37-.06-11.05,0-2-.77-4.21-2.74-5C70,47.25,66.72,47.92,64,49.24Zm16-.34c0,1.33,0,2.65,0,4a16.7,16.7,0,0,1,7.75-.57c.92.11,1.17,1.07,1.46,1.8-2.81.2-5.79-.45-8.44.74-3.43,1.42-3.84,6.93-.77,8.93,2.8,1.67,6.5,1.21,9.22-.41l.42,1.05c1.88,0,3.75,0,5.63,0,0-3.69.14-7.38-.09-11.06a5.59,5.59,0,0,0-4-4.88A18.73,18.73,0,0,0,80.09,48.9Zm24.85.42-.24-1.08c-1.9-.06-3.8,0-5.71,0,0,7.87,0,15.75,0,23.62,2.16,0,4.32,0,6.48,0,0-2.59,0-5.19,0-7.78,2.9,1,6.43,1.2,9-.72,2.37-1.76,3-4.93,2.94-7.71,0-2.46-.62-5.28-2.88-6.64A9.25,9.25,0,0,0,104.94,49.32Zm16.11-.42c0,1.33,0,2.66,0,4a17.63,17.63,0,0,1,7.6-.64c1,.11,1.39,1,1.64,1.85-2.12.1-4.25-.1-6.36.15a5.31,5.31,0,0,0-4.44,3c-1,2.31-.5,5.54,1.91,6.78a9.59,9.59,0,0,0,8.94-.6l.32,1h5.68c0-3.6.08-7.21-.05-10.81a5.6,5.6,0,0,0-3.84-5.05C128.76,47.29,124.7,47.78,121.05,48.9Zm86.78-.08c-3,1.28-3.41,6.17-.57,7.86,1.92,1.36,4.37,1.52,6.42,2.62l-.08.76a15.77,15.77,0,0,1-8.06-1c0,1.57,0,3.15,0,4.73,3.92,1.06,8.31,1.6,12.16,0,2.74-1.11,3.47-4.91,1.87-7.21-1.91-2.16-5.06-2.1-7.49-3.32,0-.16,0-.46,0-.61,2.35-.75,4.87-.21,7.17.47,0-1.54,0-3.08,0-4.61C215.52,47.78,211.42,47.24,207.83,48.82Zm-34.08-.61c2.39,5.33,4.91,10.61,7.32,15.93-1.2,1.79-3.49,1.75-5.36,1.27.1,1.48-.25,3.08.2,4.5a11.64,11.64,0,0,0,6.74.14c3-1,4.77-4,6-6.78q3.09-7.52,6.15-15.06c-2.28,0-4.55,0-6.82,0-1.23,3.06-2.31,6.18-3.64,9.21-1.33-3-2.47-6.16-3.73-9.23C178.3,48.21,176,48.19,173.75,48.21ZM88.61,78.91c.59,1.19,1.44,2.22,2,3.4-.52.34-1.15.94-1.8.49-1.56-.57-1.24-3.49-3.33-2.69.29,2,1.7,4.08,3.83,4.39,1.81.31,3.52-1.94,2.45-3.54-.55-1.31-2.63-2.76-1-4a5.17,5.17,0,0,1,2.62,2.69l1.35-.3a4.89,4.89,0,0,0-3.58-3.64A2.4,2.4,0,0,0,88.61,78.91Zm50.61,2,1.3-.12c.27-1,.57-2.32,1.84-2.32,1.46.21,1.22,2,1.08,3.11,0,1.65-1,3.55.29,5q2.4-1.86,4.77-3.77l-.93-1.16-3,2.33a26.67,26.67,0,0,0,.35-4.63A2.51,2.51,0,0,0,142,77,3.55,3.55,0,0,0,139.22,80.91ZM96,80.08c0,.87,1,.82,1.63.92.06-.58.46-1.28-.09-1.74S95.94,79.26,96,80.08Zm39.24,1.42c.2,2.39-.86,5,.34,7.22,1.1-.6,2.2-1.2,3.32-1.75.31.61.63,1.22.95,1.82.44-.21.9-.41,1.35-.63-.32-.62-.64-1.23-.95-1.85l.74-.71c-.19-.36-.37-.73-.55-1.08l-1,.38q-.4-.65-.78-1.29l-1.27.64.72,1.47-1.64.77c.07-2,.19-4,.22-5.94Zm-39.93-.33c-1.22,1.87-2.43,3.75-3.66,5.62l1.31.77c1.2-1.85,2.41-3.7,3.58-5.58ZM98,82.9c-.92,2-2,3.95-2.78,6l1.18.78a34.17,34.17,0,0,1,2-3.91,1.6,1.6,0,0,1,2.75,1,46.94,46.94,0,0,1-1.83,4.34l1.39.48c.65-1.73,1.9-3.3,2-5.19-.11-1.69-1.93-2.33-3.38-2.18A3.08,3.08,0,0,0,98,82.9Zm28.84,2.82a3,3,0,0,0,2.14,4c1.33.26,2.38-.72,3.32-1.5-.12.88.13,2-.65,2.64s-1.77.48-2.66.5l-.2,1.35c1.73.31,3.94,0,4.67-1.87a6.58,6.58,0,0,0-1.45-6A3.24,3.24,0,0,0,126.87,85.72Zm-5.25.14c0,.44,0,.88,0,1.33l1.83-.13c.39,2.36.8,4.73,1.19,7.09l1.38-.14c-.27-2.91-.91-5.76-1.34-8.64Zm-16.05,1.2a3.47,3.47,0,0,0-.71,5.69c1.26,1.11,3.07.83,4.51.28-.4-1.86-2.47-.18-3.47-1.33a2,2,0,0,1,.87-3.53c1-.3,1.84.55,2.58,1.15l1.09-.81A4,4,0,0,0,105.57,87.06Zm5.73,5.53c.82,2.42,4,2.62,5.86,1.42-.21-.37-.43-.73-.64-1.09-1.43.87-3.46.7-4.11-1,1.78,0,3.56.2,5.34.32.4-1.92-.64-4.22-2.81-4.26C112.39,87.44,110.39,90.28,111.3,92.59Z"/><path class="cls-2" d="M219.94,16.54a14.57,14.57,0,0,1,2.08.16c.66,1.08,1.11,2.28,1.72,3.39a18.88,18.88,0,0,1,1.81-3.45c.64-.08,1.29-.07,1.93-.09.05,2.26,0,4.53,0,6.8l-1.57,0c0-1.36,0-2.72,0-4.08-.58,1.16-1.14,2.33-1.69,3.5h-1.05c-.54-1.17-1.12-2.33-1.71-3.48,0,1.36,0,2.71,0,4.07l-1.56,0C219.91,21.08,219.89,18.81,219.94,16.54Z"/><path class="cls-2" d="M213.52,16.61c1.78,0,3.56,0,5.34,0l0,1.33L217,18c0,1.78,0,3.56,0,5.34l-1.57,0c0-1.79,0-3.57,0-5.35l-1.89,0C213.52,17.63,213.52,17,213.52,16.61Z"/><path class="cls-2" d="M121.36,35.35a2,2,0,0,1,2.88,1.73,2,2,0,0,1-2.59,2.08A2.19,2.19,0,0,1,121.36,35.35Z"/><path class="cls-2" d="M129.16,35.41c2.3-1.55,4.44,2.36,2.11,3.6C129,40.46,127,36.71,129.16,35.41Z"/><path class="cls-2" d="M141,36.66c.55-2,3.56-2.18,3.95,0C143.6,36.73,142.28,36.73,141,36.66Z"/><path class="cls-2" d="M112.65,38.21c.67-1.06,2.13-.54,3.17-.66C115.93,39.33,112.91,40.18,112.65,38.21Z"/><path class="cls-2" d="M105.6,53.45c1.42-1.22,4.47-1.32,5,.85.31,1.67.38,3.7-.82,5.05-1.19,1.11-3,.63-4.28,0A50.44,50.44,0,0,1,105.6,53.45Z"/><path class="cls-2" d="M43.52,60.69a1.57,1.57,0,0,1,.29-2.82,23.57,23.57,0,0,1,4.12-.11c0,.66,0,1.32,0,2A4.64,4.64,0,0,1,43.52,60.69Z"/><path class="cls-2" d="M85,60.77a1.56,1.56,0,0,1,0-2.88,18.12,18.12,0,0,1,4.23-.09c0,.61,0,1.23,0,1.84A4.43,4.43,0,0,1,85,60.77Z"/><path class="cls-2" d="M125.78,60.73a1.56,1.56,0,0,1,.3-2.87,25.91,25.91,0,0,1,4-.11c0,.66,0,1.32,0,2A4.57,4.57,0,0,1,125.78,60.73Z"/><path class="cls-2" d="M129.16,85.42a1.54,1.54,0,0,1,2.12,1.68c-.3,1.19-2.2,1.76-2.89.61A1.47,1.47,0,0,1,129.16,85.42Z"/><path class="cls-2" d="M112.56,90.64a2.05,2.05,0,0,1,4,.23C115.19,90.85,113.87,90.78,112.56,90.64Z"/><path class="cls-2" d="M141.84,118.82c2.27-1.24,5-.86,7.39-.18-.29.86-.6,1.73-.93,2.59-1.52-.32-3.38-1-4.72.11a4.4,4.4,0,0,0-.46,5.07c.66,1.15,2.11,1,3.25,1,0-.62,0-1.24.08-1.86l-2.15,0c0-.82,0-1.64,0-2.46,1.73,0,3.46,0,5.19,0,0,2.12,0,4.24,0,6.36-2.91.83-6.83,1.46-9-1.14C138.46,125.5,138.64,120.69,141.84,118.82Z"/><path class="cls-2" d="M55.09,118.17c2.55.1,5.31-.43,7.7.71,1.85,1.05,1.35,3.69-.08,4.89a3.25,3.25,0,0,1-.05,5.54c-2.32,1.16-5,.56-7.53.72C55,126.08,55.08,122.12,55.09,118.17Zm3.32,2.41c0,.74,0,1.49,0,2.23.8-.2,2.21,0,2.24-1.22C60.53,120.48,59.2,120.79,58.41,120.58Zm0,4.47q0,1.24.06,2.49c.84-.22,2.31.11,2.4-1.12C61.11,125,59.32,125.12,58.4,125.05Z"/><path class="cls-2" d="M66.1,118.19c1.07,0,2.15,0,3.23,0,.1,2.61-.16,5.24.14,7.84.12,1.72,3,2,3.34.24.35-2.67,0-5.38.16-8.07h3.21c-.05,2.87.2,5.76-.13,8.61-.89,4.63-9.14,4.58-9.84-.14C66,123.83,66.17,121,66.1,118.19Z"/><path class="cls-2" d="M77.67,118.23c3-.13,6-.08,9,0,0,.88,0,1.76,0,2.63l-2.88,0c0,3.06,0,6.11,0,9.17l-3.22,0c0-3,0-6.09,0-9.14l-2.88-.07C77.66,119.94,77.67,119.09,77.67,118.23Z"/><path class="cls-2" d="M87.42,118.17c3,0,6,0,9,0,0,.89,0,1.77,0,2.66l-2.88,0c0,3,0,6.1,0,9.15H90.34c-.12-3,0-6.09,0-9.14l-2.89-.07C87.41,119.94,87.41,119.06,87.42,118.17Z"/><path class="cls-2" d="M98,118.19c2.34-.06,4.69,0,7,0v2.67l-3.8,0c0,.58,0,1.16,0,1.75h3.49c0,.86,0,1.72,0,2.57h-3.48c0,.72,0,1.44,0,2.17,1.27,0,2.53,0,3.79,0,0,.89,0,1.78,0,2.67H98C98,126.07,98,122.13,98,118.19Z"/><path class="cls-2" d="M107,118.17c2.49.1,5.27-.47,7.5.9,2,1.56,1.23,4.65-.7,5.91,1.09,1.69,2.27,3.32,3.34,5a13.87,13.87,0,0,1-3.76-.17c-.93-1.24-1.56-2.66-2.37-4l-.77-.18c0,1.44,0,2.88,0,4.32-1.08,0-2.16,0-3.23,0C107,126.06,106.94,122.12,107,118.17Zm3.25,2.34c0,1,0,1.93,0,2.9.82-.22,2.14-.3,2.1-1.45C112.54,120.76,111,120.75,110.23,120.51Z"/><path class="cls-2" d="M123.87,118.67c1.9-1.07,5.4-1,6.15,1.47.53,1.64-.9,2.8-1.76,4a16.85,16.85,0,0,0,1.3,1.23,7.5,7.5,0,0,1,1-1.94,22.2,22.2,0,0,1,3.16,0,16.92,16.92,0,0,1-1.83,4.15c.82.82,1.66,1.63,2.46,2.48-1.68,0-3.5.34-5-.55a8,8,0,0,1-5.43.37,3.27,3.27,0,0,1-2.25-3.43c0-1.27,1-2.15,1.87-3C122.69,121.94,122.17,119.73,123.87,118.67Zm1.6,1.69a7.6,7.6,0,0,0,.9,2,11.46,11.46,0,0,0,1-2A7.34,7.34,0,0,0,125.47,120.36Zm-.15,4.82c-.11.64-.72,1.48-.07,2s1.5.14,2.22.07A24.93,24.93,0,0,0,125.32,125.18Z"/><path class="cls-2" d="M151.83,118.17c1.07,0,2.13,0,3.2,0,0,1.45,0,2.9,0,4.35h3.56c0-1.46,0-2.91,0-4.37q1.62,0,3.24,0c0,3.94,0,7.88,0,11.82l-3.22,0c0-1.62,0-3.24-.06-4.85h-3.55c0,1.61,0,3.23,0,4.84h-3.15C151.75,126.08,151.81,122.12,151.83,118.17Z"/><path class="cls-2" d="M164.31,118.19c2.35-.06,4.69,0,7,0v2.67h-3.8c0,.58,0,1.16,0,1.75,1.17,0,2.34,0,3.52.08,0,.83,0,1.67,0,2.5l-3.53,0c0,.69,0,1.39,0,2.1q1.88,0,3.75,0c0,.9,0,1.8,0,2.7h-7C164.31,126.08,164.31,122.13,164.31,118.19Z"/><path class="cls-2" d="M173.33,118.17c2.34,0,4.68-.07,7,.06,0,.86,0,1.72,0,2.58-1.26,0-2.53,0-3.79,0,0,.58,0,1.16,0,1.75H180c0,.86,0,1.73,0,2.6-1.18,0-2.36,0-3.54,0l0,2.1c1.26,0,2.53,0,3.79,0,0,.89,0,1.79,0,2.68-2.32,0-4.63,0-6.94,0C173.24,126.08,173.31,122.12,173.33,118.17Z"/><path class="cls-3" d="M109,2.49a53.06,53.06,0,0,1,25.41,2.16,43.15,43.15,0,0,1,19.76,14q17.25-.18,34.5,0c8.32-.22,17.46,2.7,22.31,9.86.92,1.08,1,3.34,2.9,3.06a19.48,19.48,0,0,1,12.39,5c4.31,4,6.44,9.93,6.86,15.72.14,6.26-1.54,13-6.35,17.36-3.78,3.46-9,5-14,5.21-4.75,7.25-13.31,11.54-21.87,11.92-12.24.38-24.48-.05-36.71.22A54.47,54.47,0,0,1,139,98.6,48.32,48.32,0,0,1,101.36,101,50.16,50.16,0,0,1,80.73,87.21c-12.32,0-24.64.23-36.95,0A26,26,0,0,1,22.26,74.82c-5.47-.55-11-2.5-14.93-6.5C2.88,63.78,1.31,57,2.05,50.85S5.63,38.51,10.87,35a21.59,21.59,0,0,1,11.61-3.51A25.22,25.22,0,0,1,43.79,18.86q18.47-.09,36.94-.24C87.51,9.75,98.07,4.18,109,2.49ZM82,21.35c-12.75-.06-25.5.15-38.25.18a23,23,0,0,0-15,6.14A29.28,29.28,0,0,0,24,34.05c-5.17,0-10.69,1.34-14.25,5.33A21.76,21.76,0,0,0,6.71,63c2.94,5.68,9.37,8.78,15.57,9.06.62.1,1.52-.15,1.81.59a22.52,22.52,0,0,0,12.42,10.5A27.48,27.48,0,0,0,46,84.62c12,0,24,.07,36-.1a45.9,45.9,0,0,0,70.75-.17c10-.21,20-.06,30-.1,5.77,0,11.78.14,17.18-2.18,4.56-2.19,9-5.25,11.29-9.92,5.37.22,11.1-1.46,14.78-5.55s4.65-9.53,4.45-14.71C230,46,227.32,39.8,222.06,36.67c-3.31-2-7.27-2.6-11.09-2.57-1.13-2.25-2.19-4.6-4-6.4-4.47-4.49-11-6.3-17.16-6.45-12.37,0-24.73,0-37.1,0-8.36-11.53-23.05-17.33-37.05-16.7C102.75,4.85,89.68,10.75,82,21.35Z"/><path class="cls-3" d="M106,10.72a14.39,14.39,0,0,1,14.63.24,7.16,7.16,0,0,1,1.82,1.9c-.6.63-1.18,1.28-1.73,2a3.7,3.7,0,0,0-2.52-2.42,3.21,3.21,0,0,0-3.84,3.2c0,2.66,0,5.33,0,8-.74,0-1.86.47-2.33-.26-.23-2.71.08-5.43-.12-8.14A3.17,3.17,0,0,0,109,12.33a3.22,3.22,0,0,0-3.42,3.25c0,2.69.06,5.38,0,8.06-.78,0-1.55,0-2.32,0-.08-2.82-.08-5.64,0-8.46A5.45,5.45,0,0,1,106,10.72Z"/><path class="cls-3" d="M120.67,17.82a5.61,5.61,0,0,1,5.38-5.29,5.52,5.52,0,0,1,5.83,5.25c0,2.12,0,4.23,0,6.34a5.37,5.37,0,0,1-5.06,5.17c-1.32.06-2.64,0-4,0,.31-1.12,1.07-2.33,2.41-2.16,1.76.17,3.88-.67,4.15-2.62.13-2.22.06-4.46,0-6.68A3.2,3.2,0,0,0,125.14,15a3.3,3.3,0,0,0-1.37,5c.72,1.11,2.15,1.13,3.28,1.53.85.31,1,1.3,1.34,2a13.86,13.86,0,0,1-3.81-.28A5.55,5.55,0,0,1,120.67,17.82Z"/><path class="cls-3" d="M126.54,17.22c.93-.92,2.41.58,1.48,1.45S125.6,18.16,126.54,17.22Z"/><path class="cls-3" d="M108.35,40.49c0-3.07-.07-6.15.06-9.21l1.42.09c0,3.05,0,6.1,0,9.15Z"/><path class="cls-3" d="M89.44,31.79c.77.09,1.67-.2,2.35.21.95,1.62,1.61,3.4,2.51,5,.91-1.72,1.73-3.48,2.54-5.25l2.35.05q0,4.29,0,8.58l-1.48.12c0-2.17,0-4.34,0-6.51-1,1.8-1.82,3.75-2.93,5.5l-.85.36c-1-2-1.94-3.94-3-5.89,0,2.17,0,4.34,0,6.5l-1.48,0Q89.46,36.14,89.44,31.79Z"/><path class="cls-3" d="M100.38,33.84H102a47.45,47.45,0,0,0,2,4.57c.64-1.51,1.24-3,1.86-4.55h1.6c-1.14,2.74-2.14,5.55-3.42,8.22-.66,1.36-2.35,1.16-3.49.59l.39-1.2c.79,0,2,.48,2.15-.69C102.33,38.39,101.2,36.17,100.38,33.84Z"/><path class="cls-3" d="M111.59,34.73c1.49-1,4-1.56,5.21.09.66,1.85.26,3.89.33,5.81a4.23,4.23,0,0,1-1.53-.58c-.88.32-1.91.84-2.89.44-1.61-.34-2.11-2.87-.61-3.66a11.84,11.84,0,0,1,3.75-.46c-.42-1.77-2.32-1.41-3.56-.77C112.12,35.38,111.77,34.94,111.59,34.73Zm1.06,3.48c.26,2,3.28,1.12,3.17-.66C114.78,37.67,113.32,37.15,112.65,38.21Z"/><path class="cls-3" d="M118.94,33.72a3,3,0,0,1,1.75.65,3.31,3.31,0,0,1,3.67,0c2.18,1.44,1.68,5.47-.92,6.16-1.08.41-2.12-.19-3.06-.66,0,1,0,2.06,0,3.09h-1.46C118.91,39.86,118.89,36.79,118.94,33.72Zm2.42,1.63a2.19,2.19,0,0,0,.29,3.81,2,2,0,0,0,2.59-2.08A2,2,0,0,0,121.36,35.35Z"/><path class="cls-3" d="M129.14,33.93a3.63,3.63,0,0,1,3.66.86,3.46,3.46,0,0,1-.1,4.88,3.61,3.61,0,0,1-5.63-1A3.44,3.44,0,0,1,129.14,33.93Zm0,1.48c-2.16,1.3-.14,5.05,2.11,3.6C133.6,37.77,131.46,33.86,129.16,35.41Z"/><path class="cls-3" d="M136.7,34.73a17.69,17.69,0,0,1,2.1-1.14c0,.5,0,1,0,1.5-2.73.36-2.07,3.5-2.13,5.46l-1.47-.08c0-2.2,0-4.41,0-6.61l1.44,0Z"/><path class="cls-3" d="M140.87,34.5a3.57,3.57,0,0,1,4.78.39c.7.81.57,1.94.64,2.93-1.77,0-3.55,0-5.32.06.82,1.73,2.84,1.67,4.26.77l.64,1a4.47,4.47,0,0,1-4.47.56A3.53,3.53,0,0,1,140.87,34.5Zm.1,2.16c1.31.07,2.63.07,3.95,0C144.53,34.48,141.52,34.67,141,36.66Z"/><path class="cls-3" d="M153.84,41.35h6.48c0,2.55,0,5.09,0,7.64a10.26,10.26,0,0,1,8.69-.38c1.88.94,2.56,3.18,2.6,5.14,0,3.55,0,7.12,0,10.67-2.2,0-4.39,0-6.57,0-.05-3.43.09-6.87-.06-10.29-.3-2.24-3.64-1.65-4.62-.23-.15,3.51,0,7-.09,10.53-2.14,0-4.29,0-6.43,0C153.83,56.73,153.85,49,153.84,41.35Z"/><path class="cls-3" d="M21.14,42.69a22.63,22.63,0,0,1,12,.25v5.61a17.53,17.53,0,0,0-9-.65,4.65,4.65,0,0,0-3.54,3.85c-.36,2.21-.32,5,1.65,6.51s4.48,1,6.68.61c0-1.06,0-2.11,0-3.16H24.58c0-1.36,0-2.72,0-4.07h9.82c0,3.74,0,7.48,0,11.22a19.15,19.15,0,0,1-11.83,1.69A9.92,9.92,0,0,1,14.9,59.3a14.9,14.9,0,0,1-.45-10.36A9.7,9.7,0,0,1,21.14,42.69Z"/><path class="cls-3" d="M198.67,42c1.82,0,3.65,0,5.47,0-.92,2.64-1.79,5.3-2.7,7.94-1.64,0-3.29,0-4.92,0C197.22,47.29,197.92,44.63,198.67,42Z"/><path class="cls-3" d="M140.7,44.86c2.18-.52,4.36-1.06,6.55-1.54,0,1.62,0,3.25,0,4.87l3.71,0c-.09,1.59-.17,3.18-.23,4.77-1.16,0-2.32,0-3.48.06a52.06,52.06,0,0,0,.15,6.12c.8,1.38,2.65.7,3.93.58,0,1.46,0,2.92,0,4.38-3,.83-6.94,1.38-9.3-1.13-2.11-2.85-1.12-6.64-1.33-9.94l-2,0c0-1.59,0-3.19,0-4.78l2,0C140.69,47.07,140.69,46,140.7,44.86Z"/><path class="cls-3" d="M38.86,48.9A21,21,0,0,1,48.23,48,7.46,7.46,0,0,1,53,50.48a7.69,7.69,0,0,1,1.17,4.76c0,3.06,0,6.12,0,9.18H48.44l-.29-1a9.63,9.63,0,0,1-9,.61c-3.27-1.79-3.11-7.38.24-9,2.7-1.33,5.8-.65,8.68-.86-.28-.71-.52-1.62-1.4-1.78a16.48,16.48,0,0,0-7.82.57Zm4.66,11.79A4.64,4.64,0,0,0,48,59.75c0-.67,0-1.33,0-2a23.57,23.57,0,0,0-4.12.11A1.57,1.57,0,0,0,43.52,60.69Z"/><path class="cls-3" d="M64,49.24c2.68-1.32,5.93-2,8.79-.86,2,.78,2.7,3,2.74,5,.15,3.68.05,7.37.06,11.05-2.19,0-4.38,0-6.56,0,0-3.31,0-6.62,0-9.93.18-2.84-5.1-2.18-4.71.37,0,3.19,0,6.38,0,9.57-2.18,0-4.36,0-6.53,0,0-5.4,0-10.81,0-16.21h6.09C63.9,48.47,64,49,64,49.24Z"/><path class="cls-3" d="M80.09,48.9a18.73,18.73,0,0,1,11.18-.42,5.59,5.59,0,0,1,4,4.88c.23,3.68.06,7.37.09,11.06-1.88,0-3.75,0-5.63,0l-.42-1.05c-2.72,1.62-6.42,2.08-9.22.41-3.07-2-2.66-7.51.77-8.93,2.65-1.19,5.63-.54,8.44-.74-.29-.73-.54-1.69-1.46-1.8a16.7,16.7,0,0,0-7.75.57C80.08,51.55,80.08,50.23,80.09,48.9ZM85,60.77a4.43,4.43,0,0,0,4.25-1.13c0-.61,0-1.23,0-1.84a18.12,18.12,0,0,0-4.23.09A1.56,1.56,0,0,0,85,60.77Z"/><path class="cls-3" d="M104.94,49.32a9.25,9.25,0,0,1,9.61-.35c2.26,1.36,2.87,4.18,2.88,6.64.07,2.78-.57,6-2.94,7.71-2.58,1.92-6.11,1.75-9,.72,0,2.59,0,5.19,0,7.78-2.16,0-4.32,0-6.48,0,0-7.87,0-15.75,0-23.62,1.91,0,3.81,0,5.71,0Zm.66,4.13a50.44,50.44,0,0,0-.11,5.9c1.3.63,3.09,1.11,4.28,0,1.2-1.35,1.13-3.38.82-5.05C110.07,52.13,107,52.23,105.6,53.45Z"/><path class="cls-3" d="M121.05,48.9c3.65-1.12,7.71-1.61,11.39-.35a5.6,5.6,0,0,1,3.84,5.05c.13,3.6,0,7.21.05,10.81h-5.68l-.32-1a9.59,9.59,0,0,1-8.94.6c-2.41-1.24-2.86-4.47-1.91-6.78a5.31,5.31,0,0,1,4.44-3c2.11-.25,4.24,0,6.36-.15-.25-.82-.67-1.74-1.64-1.85a17.63,17.63,0,0,0-7.6.64C121,51.56,121,50.23,121.05,48.9Zm4.73,11.83a4.57,4.57,0,0,0,4.36-1c0-.66,0-1.32,0-2a25.91,25.91,0,0,0-4,.11A1.56,1.56,0,0,0,125.78,60.73Z"/><path class="cls-3" d="M207.83,48.82c3.59-1.58,7.69-1,11.42-.26,0,1.53,0,3.07,0,4.61-2.3-.68-4.82-1.22-7.17-.47,0,.15,0,.45,0,.61,2.43,1.22,5.58,1.16,7.49,3.32,1.6,2.3.87,6.1-1.87,7.21-3.85,1.58-8.24,1-12.16,0,0-1.58,0-3.16,0-4.73a15.77,15.77,0,0,0,8.06,1l.08-.76c-2.05-1.1-4.5-1.26-6.42-2.62C204.42,55,204.8,50.1,207.83,48.82Z"/><path class="cls-3" d="M173.75,48.21c2.27,0,4.55,0,6.82,0,1.26,3.07,2.4,6.19,3.73,9.23,1.33-3,2.41-6.15,3.64-9.21,2.27,0,4.54,0,6.82,0q-3.07,7.55-6.15,15.06c-1.19,2.78-2.92,5.77-6,6.78a11.64,11.64,0,0,1-6.74-.14c-.45-1.42-.1-3-.2-4.5,1.87.48,4.16.52,5.36-1.27C178.66,58.82,176.14,53.54,173.75,48.21Z"/><path class="cls-3" d="M88.61,78.91a2.4,2.4,0,0,1,2.6-3.25,4.89,4.89,0,0,1,3.58,3.64l-1.35.3a5.17,5.17,0,0,0-2.62-2.69c-1.65,1.29.43,2.74,1,4,1.07,1.6-.64,3.85-2.45,3.54-2.13-.31-3.54-2.37-3.83-4.39,2.09-.8,1.77,2.12,3.33,2.69.65.45,1.28-.15,1.8-.49C90.05,81.13,89.2,80.1,88.61,78.91Z"/><path class="cls-3" d="M139.22,80.91A3.55,3.55,0,0,1,142,77a2.51,2.51,0,0,1,2.93,2.28,26.67,26.67,0,0,1-.35,4.63l3-2.33.93,1.16q-2.37,1.91-4.77,3.77c-1.26-1.41-.33-3.31-.29-5,.14-1.07.38-2.9-1.08-3.11-1.27,0-1.57,1.35-1.84,2.32Z"/><path class="cls-3" d="M96,80.08c-.06-.82.91-1.16,1.54-.82s.15,1.16.09,1.74C97,80.9,96,81,96,80.08Z"/><path class="cls-3" d="M135.24,81.5l1.49-1c0,2-.15,4-.22,5.94l1.64-.77-.72-1.47,1.27-.64q.38.65.78,1.29l1-.38c.18.35.36.72.55,1.08l-.74.71c.31.62.63,1.23.95,1.85-.45.22-.91.42-1.35.63-.32-.6-.64-1.21-.95-1.82-1.12.55-2.22,1.15-3.32,1.75C134.38,86.5,135.44,83.89,135.24,81.5Z"/><path class="cls-3" d="M95.31,81.17l1.23.81c-1.17,1.88-2.38,3.73-3.58,5.58l-1.31-.77C92.88,84.92,94.09,83,95.31,81.17Z"/><path class="cls-3" d="M98,82.9a3.08,3.08,0,0,1,1.35,1.3c1.45-.15,3.27.49,3.38,2.18-.13,1.89-1.38,3.46-2,5.19l-1.39-.48a46.94,46.94,0,0,0,1.83-4.34,1.6,1.6,0,0,0-2.75-1,34.17,34.17,0,0,0-2,3.91l-1.18-.78C96,86.85,97.11,84.91,98,82.9Z"/><path class="cls-3" d="M126.87,85.72a3.24,3.24,0,0,1,5.17-.88,6.58,6.58,0,0,1,1.45,6c-.73,1.83-2.94,2.18-4.67,1.87l.2-1.35c.89,0,2,.21,2.66-.5s.53-1.76.65-2.64c-.94.78-2,1.76-3.32,1.5A3,3,0,0,1,126.87,85.72Zm2.29-.3a1.47,1.47,0,0,0-.77,2.29c.69,1.15,2.59.58,2.89-.61A1.54,1.54,0,0,0,129.16,85.42Z"/><path class="cls-3" d="M121.62,85.86l3.1-.49c.43,2.88,1.07,5.73,1.34,8.64l-1.38.14c-.39-2.36-.8-4.73-1.19-7.09l-1.83.13C121.64,86.74,121.63,86.3,121.62,85.86Z"/><path class="cls-3" d="M105.57,87.06a4,4,0,0,1,4.87,1.45l-1.09.81c-.74-.6-1.53-1.45-2.58-1.15a2,2,0,0,0-.87,3.53c1,1.15,3.07-.53,3.47,1.33-1.44.55-3.25.83-4.51-.28A3.47,3.47,0,0,1,105.57,87.06Z"/><path class="cls-3" d="M111.3,92.59c-.91-2.31,1.09-5.15,3.64-4.64,2.17,0,3.21,2.34,2.81,4.26-1.78-.12-3.56-.29-5.34-.32.65,1.73,2.68,1.9,4.11,1,.21.36.43.72.64,1.09C115.25,95.21,112.12,95,111.3,92.59Zm1.26-2c1.31.14,2.63.21,4,.23A2.05,2.05,0,0,0,112.56,90.64Z"/><path class="cls-4" d="M125.47,120.36a7.34,7.34,0,0,1,1.93,0,11.46,11.46,0,0,1-1,2A7.6,7.6,0,0,1,125.47,120.36Z"/></g></g></svg>